<svg width="844" height="729" viewBox="0 0 844 729" fill="none" xmlns="http://www.w3.org/2000/svg">
<path d="M718.633 42.6851H122.366C73.2587 42.6851 33.4492 82.4945 33.4492 131.602V513.422C33.4492 562.529 73.2587 602.339 122.366 602.339H718.633C767.74 602.339 807.55 562.529 807.55 513.422V131.602C807.55 82.4945 767.74 42.6851 718.633 42.6851Z" fill="#191815" stroke="#111111" stroke-width="18" stroke-linecap="round" stroke-linejoin="round"/>
<path d="M671.56 121.141H169.441C137.665 121.141 111.906 146.9 111.906 178.676V466.348C111.906 498.123 137.665 523.883 169.441 523.883H671.56C703.335 523.883 729.094 498.123 729.094 466.348V178.676C729.094 146.9 703.335 121.141 671.56 121.141Z" fill="white" stroke="#111111" stroke-width="18" stroke-linecap="round" stroke-linejoin="round"/>
<path d="M340.735 205.1H249.443C235.692 205.1 224.545 216.247 224.545 229.997V321.289C224.545 335.04 235.692 346.187 249.443 346.187H340.735C354.485 346.187 365.632 335.04 365.632 321.289V229.997C365.632 216.247 354.485 205.1 340.735 205.1Z" fill="#111111"/>
<path d="M598.088 205.1H506.796C493.046 205.1 481.898 216.247 481.898 229.997V321.289C481.898 335.04 493.046 346.187 506.796 346.187H598.088C611.839 346.187 622.986 335.04 622.986 321.289V229.997C622.986 216.247 611.839 205.1 598.088 205.1Z" fill="#111111"/>
<path d="M697.712 602.339H143.289C123.068 602.339 106.676 618.731 106.676 638.952V654.643C106.676 674.864 123.068 691.256 143.289 691.256H697.712C717.933 691.256 734.325 674.864 734.325 654.643V638.952C734.325 618.731 717.933 602.339 697.712 602.339Z" fill="#191815" stroke="#111111" stroke-width="18" stroke-linecap="round" stroke-linejoin="round"/>
<rect x="566.67" y="278.942" width="79.0107" height="79.0107" transform="rotate(-44.1954 566.67 278.942)" fill="white"/>
<rect x="308.568" y="277.626" width="79.0107" height="79.0107" transform="rotate(-44.1954 308.568 277.626)" fill="white"/>
</svg>
